<?xml version="1.0" encoding="utf-8"?>
<!-- Generator: Adobe Illustrator 27.2.0, SVG Export Plug-In . SVG Version: 6.00 Build 0)  -->
<svg version="1.1" id="Calque_1" xmlns="http://www.w3.org/2000/svg" xmlns:xlink="http://www.w3.org/1999/xlink" x="0px" y="0px"
	 viewBox="0 0 40.4 38" style="enable-background:new 0 0 40.4 38;" xml:space="preserve">
<style type="text/css">
	.st0{fill:#153D58;}
</style>
<path class="st0" d="M26.2,25h-2.7V13.2h2.7c1.1,0,2-0.9,2-2c0-0.5-0.2-0.9-0.5-1.3l-6-7c-0.7-0.8-2-0.9-2.8-0.2
	c-0.1,0.1-0.1,0.1-0.2,0.2l0,0l-6,7c-0.7,0.8-0.6,2.1,0.2,2.8c0.4,0.3,0.8,0.5,1.3,0.5h2.7V25h-2.7c-1.1,0-2,0.9-2,2
	c0,0.5,0.2,0.9,0.5,1.3l6,7c0.7,0.8,2,0.9,2.8,0.2c0.1-0.1,0.1-0.1,0.2-0.2l0,0l6-7c0.7-0.8,0.6-2.1-0.2-2.8
	C27.1,25.2,26.7,25,26.2,25z"/>
</svg>
