<svg xmlns="http://www.w3.org/2000/svg" xmlns:xlink="http://www.w3.org/1999/xlink" width="811.367" height="271.452" viewBox="0 0 811.367 271.452">
  <defs>
    <clipPath id="clip-path">
      <rect id="Rectangle_31" data-name="Rectangle 31" width="811.367" height="271.452" fill="none"/>
    </clipPath>
  </defs>
  <g id="Groupe_23" data-name="Groupe 23" transform="translate(0 0)">
    <g id="Groupe_23-2" data-name="Groupe 23" transform="translate(0 0)" clip-path="url(#clip-path)">
      <path id="Tracé_627" data-name="Tracé 627" d="M162.31,141.789H139.162l-19.986-40.834H104.8v40.834H84.812V39.418h40.115q15.236,0,24.441,9.2,8.771,8.774,8.772,22.143a27.374,27.374,0,0,1-18.691,26.887Zm-24.156-71.1a12.628,12.628,0,0,0-4.025-9.726,14.862,14.862,0,0,0-10.5-3.719H104.8V84.135h18.836a14.854,14.854,0,0,0,10.5-3.721,12.617,12.617,0,0,0,4.025-9.723" transform="translate(98.243 45.66)" fill="#163452"/>
      <path id="Tracé_628" data-name="Tracé 628" d="M195.811,141.789H128.377V39.418h67.434V57.246H148.364V81.258h40.4V99.086h-40.4v24.875h47.447Z" transform="translate(148.707 45.66)" fill="#163452"/>
      <path id="Tracé_629" data-name="Tracé 629" d="M243.429,100.162q0,21.047-9.777,31.277-11.215,11.678-28.9,11.675-16.392,0-27.605-11.215a32.817,32.817,0,0,1-8.914-17.686q-1.153-6.323-1.15-23.148t1.153-23.146a32.776,32.776,0,0,1,8.929-17.686Q188.4,39.018,204.824,39.018q16.706,0,27.223,9.92,9.075,8.774,11.381,22.863H223.248Q219.641,56.847,204.8,56.846a16.408,16.408,0,0,0-12.827,5.465q-3.752,4.312-4.615,13.8-.291,2.587-.287,14.951t.287,14.953q.861,9.635,4.6,13.947,4.746,5.322,12.8,5.32,9.059,0,14.234-5.75,4.6-5.034,4.6-13.66v-3.883H204.751V85.17h38.678Z" transform="translate(193.539 45.197)" fill="#163452"/>
      <path id="Tracé_630" data-name="Tracé 630" d="M273.029,84.541H228.521q0,7.1,4.163,11.469t11.4,4.369A21.968,21.968,0,0,0,260.2,93.69L270.978,104.2a38.666,38.666,0,0,1-11.467,8.329,38.049,38.049,0,0,1-15.564,2.866q-32.9,0-32.9-36.452,0-17.065,8.6-26.9,8.324-9.421,22.391-9.421,14.469,0,22.937,9.691,8.052,9.288,8.055,24.305ZM255.553,72.392a19.774,19.774,0,0,0-1.638-7.647q-3.276-7.372-11.877-7.373t-11.88,7.373a19.657,19.657,0,0,0-1.636,7.647Z" transform="translate(244.463 49.378)" fill="#161615"/>
      <path id="Tracé_631" data-name="Tracé 631" d="M325.849,141.789H302.7l-19.986-40.834H268.335v40.834H248.351V39.418h40.115q15.236,0,24.441,9.2,8.771,8.774,8.77,22.143a27.369,27.369,0,0,1-18.689,26.887Zm-24.156-71.1a12.628,12.628,0,0,0-4.025-9.726,14.863,14.863,0,0,0-10.5-3.719H268.335V84.135h18.836a14.854,14.854,0,0,0,10.5-3.721,12.617,12.617,0,0,0,4.025-9.723" transform="translate(287.679 45.66)" fill="#163452"/>
      <path id="Tracé_632" data-name="Tracé 632" d="M370.276,141.789H352.448L311.9,78.957v62.832H291.917V39.418h17.828l40.547,62.689V39.418h19.984Z" transform="translate(338.144 45.66)" fill="#163452"/>
      <path id="Tracé_633" data-name="Tracé 633" d="M424.378,141.789H403.53l-6.039-18.115H361.114l-6.181,18.115h-20.85l37.24-102.371H387Zm-32.207-34.939L379.663,69.611l-12.942,37.238Z" transform="translate(386.987 45.66)" fill="#163452"/>
      <path id="Tracé_634" data-name="Tracé 634" d="M252.138,92.9H221.282a5.642,5.642,0,1,1,0-11.284h30.856a5.642,5.642,0,1,1,0,11.284" transform="translate(249.788 94.545)" fill="#d9000d"/>
      <path id="Tracé_635" data-name="Tracé 635" d="M52.532,80.2a7.189,7.189,0,0,1-6.153-12.281c8.767-8.4,14.677-15.717,18.6-23.006a7.189,7.189,0,1,1,12.661,6.814C72.984,60.384,66.211,68.825,56.33,78.3a7.165,7.165,0,0,1-3.8,1.9" transform="translate(51.158 47.646)" fill="#d9000d"/>
      <path id="Tracé_636" data-name="Tracé 636" d="M49.65,179.4a7.188,7.188,0,0,1-4.069-13.118C68.36,150.677,77.654,136.6,77.654,117.7a45.329,45.329,0,0,0-8.5-26.91,7.19,7.19,0,0,1,11.767-8.264,59.273,59.273,0,0,1,11.1,35.175c0,30.305-20.481,48.226-38.324,60.449a7.15,7.15,0,0,1-4.058,1.26" transform="translate(49.177 92.047)" fill="#163452"/>
      <path id="Tracé_637" data-name="Tracé 637" d="M100.344,122.887a7.156,7.156,0,0,1-4.528-1.61c-9.074-7.371-20.224-14.025-31-20.457-22.7-13.544-46.161-27.545-56-50.721a7.188,7.188,0,0,1,13.233-5.62c8.005,18.855,28.471,31.065,50.134,44,11.221,6.7,22.825,13.617,32.7,21.644a7.189,7.189,0,0,1-4.537,12.769" transform="translate(9.54 46.449)" fill="#163452"/>
      <path id="Tracé_638" data-name="Tracé 638" d="M54.481,40.1H53.15a4.493,4.493,0,0,1,0-8.985h1.332a4.493,4.493,0,1,1,0,8.985" transform="translate(56.363 36.039)" fill="#163452"/>
      <path id="Tracé_639" data-name="Tracé 639" d="M53.38,40.1H36.914a4.493,4.493,0,1,1,0-8.985H53.38a4.493,4.493,0,1,1,0,8.985" transform="translate(37.554 36.039)" fill="#163452"/>
      <path id="Tracé_640" data-name="Tracé 640" d="M40.877,40.1H21.357a4.493,4.493,0,0,1,0-8.985h19.52a4.493,4.493,0,1,1,0,8.985" transform="translate(19.536 36.039)" fill="#163452"/>
      <path id="Tracé_641" data-name="Tracé 641" d="M52.68,29.336H28.1a4.494,4.494,0,1,1,0-8.987H52.68a4.494,4.494,0,1,1,0,8.987" transform="translate(27.35 23.571)" fill="#d9000d"/>
      <path id="Tracé_642" data-name="Tracé 642" d="M47.772,29.336h-1.4a4.494,4.494,0,1,1,0-8.987h1.4a4.494,4.494,0,1,1,0,8.987" transform="translate(48.512 23.571)" fill="#163452"/>
      <path id="Tracé_643" data-name="Tracé 643" d="M52.68,50.861H28.1a4.493,4.493,0,1,1,0-8.985H52.68a4.493,4.493,0,1,1,0,8.985" transform="translate(27.35 48.507)" fill="#163452"/>
      <path id="Tracé_644" data-name="Tracé 644" d="M47.772,50.861h-1.4a4.493,4.493,0,1,1,0-8.985h1.4a4.493,4.493,0,1,1,0,8.985" transform="translate(48.512 48.507)" fill="#163452"/>
      <path id="Tracé_645" data-name="Tracé 645" d="M42.557,104.786h10.49a4.493,4.493,0,1,0,0-8.985H42.557a4.493,4.493,0,1,0,0,8.985" transform="translate(44.091 110.972)" fill="#d9000d"/>
      <path id="Tracé_646" data-name="Tracé 646" d="M35.627,115.55H46.513a4.493,4.493,0,0,0,0-8.985H35.627a4.493,4.493,0,1,0,0,8.985" transform="translate(36.063 123.44)" fill="#163452"/>
      <path id="Tracé_647" data-name="Tracé 647" d="M28.748,115.524a4.493,4.493,0,0,0,3.171-7.671,4.636,4.636,0,0,0-6.356,0,4.5,4.5,0,0,0,0,6.354,4.576,4.576,0,0,0,3.186,1.317" transform="translate(28.088 123.471)" fill="#163452"/>
      <path id="Tracé_648" data-name="Tracé 648" d="M41.1,94.023h1.815a4.493,4.493,0,1,0,0-8.985H41.1a4.493,4.493,0,1,0,0,8.985" transform="translate(42.407 98.504)" fill="#163452"/>
      <path id="Tracé_649" data-name="Tracé 649" d="M136.045,10.053C115.314-6.557,96.124,1.072,86.534,7.1A47.478,47.478,0,0,0,75.87,16.287,47.573,47.573,0,0,0,65.205,7.1c-9.594-6.028-28.782-13.66-49.511,2.95C-9.258,30.048.9,62.84,9.764,77.383a6.816,6.816,0,1,0,11.642-7.092c-.194-.317-19.127-32.019,2.812-49.6,10.787-8.638,22.136-9.331,33.733-2.044a33.825,33.825,0,0,1,10.917,11.1,11.473,11.473,0,0,1,.71,1.308c.043.106.112.2.162.3a6.76,6.76,0,0,0,.466.861c.121.181.268.337.4.5a6.792,6.792,0,0,0,.438.524,6.83,6.83,0,0,0,.559.468c.155.125.3.263.468.378a7.063,7.063,0,0,0,.861.466c.1.05.192.119.3.164l.017.006a6.906,6.906,0,0,0,1.28.391c.2.039.4.039.6.06a6.783,6.783,0,0,0,.73.069,6.515,6.515,0,0,0,.738-.069c.2-.022.393-.022.589-.06a6.767,6.767,0,0,0,1.273-.386l.026-.006c.138-.058.255-.145.386-.209a6.506,6.506,0,0,0,.773-.419c.186-.123.343-.272.514-.41s.356-.274.516-.434a6.286,6.286,0,0,0,.464-.553,5.807,5.807,0,0,0,.38-.475A6.692,6.692,0,0,0,82,31.365c.05-.1.119-.192.162-.3a11.212,11.212,0,0,1,.717-1.323,33.861,33.861,0,0,1,10.91-11.1c11.6-7.284,22.948-6.6,33.735,2.044C149.334,38.175,131.113,69,130.327,70.3a6.816,6.816,0,0,0,11.649,7.079c8.858-14.543,19.019-47.335-5.931-67.33" transform="translate(0.001 0)" fill="#163452"/>
    </g>
  </g>
</svg>
