<svg xmlns="http://www.w3.org/2000/svg" width="76.828" height="31.358" viewBox="0 0 76.828 31.358">
  <g id="Groupe_561" data-name="Groupe 561" transform="translate(-921.5 -315.298)">
    <path id="Tracé_1589" data-name="Tracé 1589" d="M35.045,8.746h-1.3a4.373,4.373,0,0,1,0-8.746h1.3a4.373,4.373,0,0,1,0,8.746" transform="translate(958.911 315.298)" fill="#fff"/>
    <path id="Tracé_1590" data-name="Tracé 1590" d="M34.772,8.746H18.746a4.373,4.373,0,0,1,0-8.746H34.772a4.373,4.373,0,0,1,0,8.746" transform="translate(939.805 315.298)" fill="#fff"/>
    <path id="Tracé_1591" data-name="Tracé 1591" d="M23.369,8.746h-19A4.373,4.373,0,0,1,4.372,0h19a4.373,4.373,0,0,1,0,8.746" transform="translate(921.5 315.298)" fill="#fff"/>
    <path id="Tracé_1592" data-name="Tracé 1592" d="M34.524,18.692H10.6a4.373,4.373,0,0,1,0-8.746H34.524a4.373,4.373,0,0,1,0,8.746" transform="translate(929.438 327.964)" fill="#fff"/>
    <path id="Tracé_1593" data-name="Tracé 1593" d="M28.849,18.692H27.487a4.373,4.373,0,0,1,0-8.746h1.362a4.373,4.373,0,0,1,0,8.746" transform="translate(950.937 327.964)" fill="#fff"/>
  </g>
</svg>
