<?xml version="1.0" encoding="UTF-8"?>
<svg xmlns="http://www.w3.org/2000/svg" xmlns:xlink="http://www.w3.org/1999/xlink" id="Groupe_55" data-name="Groupe 55" width="371.243" height="559.387" viewBox="0 0 371.243 559.387">
  <defs>
    <clipPath id="clip-path">
      <rect id="Rectangle_42" data-name="Rectangle 42" width="371.243" height="559.387" fill="none"></rect>
    </clipPath>
    <clipPath id="clip-path-3">
      <rect id="Rectangle_32" data-name="Rectangle 32" width="41.581" height="11.075" fill="none"></rect>
    </clipPath>
    <clipPath id="clip-path-4">
      <rect id="Rectangle_33" data-name="Rectangle 33" width="71.141" height="79.977" fill="none"></rect>
    </clipPath>
    <clipPath id="clip-path-5">
      <rect id="Rectangle_34" data-name="Rectangle 34" width="235.808" height="197.006" fill="none"></rect>
    </clipPath>
    <clipPath id="clip-path-6">
      <rect id="Rectangle_35" data-name="Rectangle 35" width="80.889" height="31.278" fill="none"></rect>
    </clipPath>
    <clipPath id="clip-path-7">
      <rect id="Rectangle_36" data-name="Rectangle 36" width="284.166" height="329.304" fill="none"></rect>
    </clipPath>
    <clipPath id="clip-path-8">
      <rect id="Rectangle_37" data-name="Rectangle 37" width="115.483" height="86.361" fill="none"></rect>
    </clipPath>
    <clipPath id="clip-path-9">
      <rect id="Rectangle_38" data-name="Rectangle 38" width="22.977" height="55.391" fill="none"></rect>
    </clipPath>
    <clipPath id="clip-path-10">
      <rect id="Rectangle_39" data-name="Rectangle 39" width="73.33" height="33.954" fill="none"></rect>
    </clipPath>
    <clipPath id="clip-path-11">
      <rect id="Rectangle_40" data-name="Rectangle 40" width="9.485" height="30.189" fill="none"></rect>
    </clipPath>
  </defs>
  <g id="Groupe_54" data-name="Groupe 54" clip-path="url(#clip-path)">
    <g id="Groupe_53" data-name="Groupe 53">
      <g id="Groupe_52" data-name="Groupe 52" clip-path="url(#clip-path)">
        <path id="Tracé_650" data-name="Tracé 650" d="M161.794,36.068a113.941,113.941,0,0,0-12.317-2.9c-6.86-1.01-6.185-6.559-6.185-6.559a191.2,191.2,0,0,0,.247-22.31L102.014,2.773C101.723,22.211,95,49.28,78.876,90.685S43.847,119.87,16.769,162.213c-30.756,48.092-2.2,91.962-2.2,91.962l16.994,3.451,68.091-62.513s4.265-47.755,7.759-66.949,19.765-31.325,19.765-31.325l3.535-11.3a27.324,27.324,0,0,1,27.894-19.181c.7.048,2.188.142,2.188.142Z" transform="translate(2.296 2.541)" fill="#ff725e"></path>
        <path id="Tracé_651" data-name="Tracé 651" d="M76.045,51.983c-.046.04-.435-.3-1.048-1.006a18.7,18.7,0,0,1-2.232-3.271,22.456,22.456,0,0,1,2.087-24.78A19.062,19.062,0,0,1,77.6,20.075c.724-.592,1.165-.862,1.205-.814.117.134-1.5,1.428-3.39,4.089a24.066,24.066,0,0,0-4.354,11.736,24.078,24.078,0,0,0,2.328,12.3c1.424,2.939,2.8,4.488,2.656,4.6" transform="translate(64.122 17.641)" fill="#263238"></path>
        <path id="Tracé_652" data-name="Tracé 652" d="M96,6.325c-.115,3.028-9.516,5.13-21,4.695s-20.7-3.24-20.582-6.268,9.516-5.13,21-4.695S96.114,3.3,96,6.325" transform="translate(49.857 0)" fill="#ff725e"></path>
        <g id="Groupe_27" data-name="Groupe 27" transform="translate(104.276)" opacity="0.3">
          <g id="Groupe_26" data-name="Groupe 26">
            <g id="Groupe_25" data-name="Groupe 25" clip-path="url(#clip-path-3)">
              <path id="Tracé_653" data-name="Tracé 653" d="M96,6.325c-.115,3.028-9.516,5.13-21,4.695s-20.7-3.24-20.582-6.268,9.516-5.13,21-4.695S96.114,3.3,96,6.325" transform="translate(-54.419 0)"></path>
            </g>
          </g>
        </g>
        <path id="Tracé_654" data-name="Tracé 654" d="M95.936,4.188c.023.025-.069.148-.274.362a5.447,5.447,0,0,1-.979.851,14.683,14.683,0,0,1-4.294,2.037c-3.84,1.221-9.4,1.778-15.477,1.5-6.061-.309-11.566-1.115-15.339-2.556A12.891,12.891,0,0,1,55.43,4.037a4.279,4.279,0,0,1-.86-.977c-.167-.247-.238-.383-.211-.4.094-.073.425.458,1.318,1.081a14.683,14.683,0,0,0,4.129,1.974c3.712,1.23,9.15,1.922,15.151,2.227A53.14,53.14,0,0,0,90.193,6.762a19.273,19.273,0,0,0,5.743-2.573" transform="translate(49.796 2.428)" fill="#263238"></path>
        <g id="Groupe_30" data-name="Groupe 30" transform="translate(18.637 135.235)" opacity="0.2">
          <g id="Groupe_29" data-name="Groupe 29">
            <g id="Groupe_28" data-name="Groupe 28" clip-path="url(#clip-path-4)">
              <path id="Tracé_655" data-name="Tracé 655" d="M52.3,71.651c-25.514,9.23-36.382,29.7-41.324,51.152-1.324,5.745-1.964,11.886-.006,17.445s7.084,10.338,12.978,10.305c7.28-.036,12.639-6.891,15.435-13.612s4.407-14.266,9.462-19.507c8.1-8.4,22.871-8.542,29.379-18.228C82.81,92.37,81.172,82.393,75.3,76.627s-15.126-7.379-23-4.976" transform="translate(-9.726 -70.576)" fill="#fff"></path>
            </g>
          </g>
        </g>
        <path id="Tracé_656" data-name="Tracé 656" d="M69.493,10.311a22.024,22.024,0,0,1-.414,3.388c-.322,2.173-.876,5.3-1.64,9.155a302.459,302.459,0,0,1-7.567,29.741A302.143,302.143,0,0,1,49.323,81.416c-1.544,3.612-2.853,6.509-3.815,8.483a22.345,22.345,0,0,1-1.571,3.029,22.161,22.161,0,0,1,1.217-3.188c.851-2.02,2.06-4.955,3.516-8.592,2.922-7.274,6.708-17.424,10.25-28.848,3.526-11.424,6.132-21.938,7.829-29.591.851-3.825,1.51-6.931,1.949-9.079a22.273,22.273,0,0,1,.8-3.319" transform="translate(40.248 9.447)" fill="#fff"></path>
        <path id="Tracé_657" data-name="Tracé 657" d="M85.239,21.985c0,.276-2.23.471-4.974.439s-4.969-.284-4.963-.56,2.228-.471,4.974-.439,4.967.284,4.963.56" transform="translate(68.989 19.626)" fill="#fff"></path>
        <path id="Tracé_658" data-name="Tracé 658" d="M278.777,78.653A61.267,61.267,0,0,0,253.118,52.8q-4.09-2.21-8.188-4a10.45,10.45,0,0,1-5.862-12.476,33.645,33.645,0,0,1,2.579-6.408l-21.4-9.439a44.293,44.293,0,0,1-4.179,7.734,13.027,13.027,0,0,1-21.1.761,42.071,42.071,0,0,1-3.3-4.978c-7.412-13.133-6.4-17.184-6.4-17.184l-36.5,7.584s2.014,16.632.42,23.563a34,34,0,0,1-8.456,15.463C99.66,76.087,83.326,94.5,83.326,94.5l-30.3,29.235-4.457,38.3,6.134,41.776,87.766-11.742s56.218-52.7,56.927-54.551,45.269-10.248,45.269-10.248l37.162-12.859c5.045-13.53,1.853-26.119-3.054-35.759" transform="translate(44.501 6.235)" fill="#ff725e"></path>
        <g id="Groupe_33" data-name="Groupe 33" transform="translate(93.074 13.041)" opacity="0.3">
          <g id="Groupe_32" data-name="Groupe 32">
            <g id="Groupe_31" data-name="Groupe 31" clip-path="url(#clip-path-5)">
              <path id="Tracé_659" data-name="Tracé 659" d="M278.777,78.653A61.267,61.267,0,0,0,253.118,52.8q-4.09-2.21-8.188-4a10.45,10.45,0,0,1-5.862-12.476,33.645,33.645,0,0,1,2.579-6.408l-21.4-9.439a44.293,44.293,0,0,1-4.179,7.734,13.027,13.027,0,0,1-21.1.761,42.071,42.071,0,0,1-3.3-4.978c-7.412-13.133-6.4-17.184-6.4-17.184l-36.5,7.584s2.014,16.632.42,23.563a34,34,0,0,1-8.456,15.463C99.66,76.087,83.326,94.5,83.326,94.5l-30.3,29.235-4.457,38.3,6.134,41.776,87.766-11.742s56.218-52.7,56.927-54.551,45.269-10.248,45.269-10.248l37.162-12.859c5.045-13.53,1.853-26.119-3.054-35.759" transform="translate(-48.573 -6.806)"></path>
            </g>
          </g>
        </g>
        <path id="Tracé_660" data-name="Tracé 660" d="M141.439,106.111C126.6,110.7-11.7,143.818,1.032,245.685S72.754,395.9,102.712,422.629s72.722,67.849,120.557,54.956S325.046,368.5,341.814,319.811s24.881-107.989-3.763-131.5L195.529,86.624s-31.157,12.4-54.089,19.487" transform="translate(0.188 79.362)" fill="#ff725e"></path>
        <g id="Groupe_36" data-name="Groupe 36" transform="translate(261.995 250.304)" opacity="0.2">
          <g id="Groupe_35" data-name="Groupe 35">
            <g id="Groupe_34" data-name="Groupe 34" clip-path="url(#clip-path-6)">
              <path id="Tracé_661" data-name="Tracé 661" d="M136.729,130.628S150.3,158.391,182.5,161.461c29.9,2.851,35.118-8.987,35.118-8.987a62.634,62.634,0,0,0-12.8-10.3Z" transform="translate(-136.729 -130.628)"></path>
            </g>
          </g>
        </g>
        <path id="Tracé_662" data-name="Tracé 662" d="M92.389,35.549c-.316,8.337-2.679,15.015-5.279,14.915s-4.451-6.937-4.137-15.272,2.679-15.011,5.279-14.915,4.453,6.937,4.137,15.272" transform="translate(75.985 18.577)" fill="#ff725e"></path>
        <path id="Tracé_663" data-name="Tracé 663" d="M137.29,7.825c.569,2.568-7.107,6.456-17.146,8.682s-18.64,1.953-19.21-.617,7.107-6.456,17.146-8.682,18.64-1.951,19.21.617" transform="translate(92.445 5.224)" fill="#263238"></path>
        <path id="Tracé_664" data-name="Tracé 664" d="M83.078,124.46s36.834-53.886,112.431-63.107c0,0,38.94-7.82,86.852,17.638l-17.64,55.4s-23.54-8.224-48.306-2.443c0,0-41.851,9.935-43.326,51.9" transform="translate(76.113 55.172)" fill="#ff725e"></path>
        <path id="Tracé_665" data-name="Tracé 665" d="M194.382,99.88c-5.049,15.241-12.258,26.566-16.1,25.293s-2.863-14.661,2.186-29.9,12.258-26.566,16.1-25.293,2.863,14.661-2.186,29.9" transform="translate(161.187 64.022)" fill="#ff725e"></path>
        <g id="Groupe_39" data-name="Groupe 39" transform="translate(20.632 189.424)" opacity="0.2">
          <g id="Groupe_38" data-name="Groupe 38">
            <g id="Groupe_37" data-name="Groupe 37" clip-path="url(#clip-path-7)">
              <path id="Tracé_666" data-name="Tracé 666" d="M61.121,156.8l.015.025c0-.019,0-.036-.015-.025" transform="translate(35.364 -45.769)"></path>
              <path id="Tracé_667" data-name="Tracé 667" d="M149.527,155.277a23.348,23.348,0,0,0,4.62-.261,15.5,15.5,0,0,0,4.451-1.575,32.074,32.074,0,0,0,7.1-5.407c1.052-.983,2.068-2,3.108-2.9,1.056-.864,2.1-1.755,3.171-1.721,2.989-.126,5.762-.732,8.554-.711a9.011,9.011,0,0,1,2.014.207,2.844,2.844,0,0,1,1.613.855,26.256,26.256,0,0,0,2.823,3.269,24.843,24.843,0,0,0,3.328,2.769,7.631,7.631,0,0,0,3.972,1.552,7.489,7.489,0,0,1-3.805-1.782,24.785,24.785,0,0,1-3.085-2.93,25.933,25.933,0,0,1-2.564-3.409,3.744,3.744,0,0,0-2.016-1.282,9.99,9.99,0,0,0-2.229-.385c-2.945-.211-5.858.217-8.6.144a5.984,5.984,0,0,0-1.32.132,7.493,7.493,0,0,0-1.169.481,14.645,14.645,0,0,0-1.935,1.261c-1.192.9-2.265,1.845-3.367,2.746a29.68,29.68,0,0,1-6.831,4.551,12.537,12.537,0,0,1-3.689,1.046,20.627,20.627,0,0,1-3.951-.056,55.263,55.263,0,0,1-15.887-4.327l-.015.038a41.815,41.815,0,0,1-4.572-15.262,37.1,37.1,0,0,1,.036-8.04,38.7,38.7,0,0,1,.648-3.943,26.683,26.683,0,0,1,1.088-3.664l-.1-.04a67.192,67.192,0,0,1,5.216-6.576c1.219-1.366,2.495-2.683,3.817-3.92.661-.621,1.336-1.215,2.012-1.78.337-.263.68-.552,1-.772a4.644,4.644,0,0,1,.45-.307c.05-.027.176-.117.161-.1a.033.033,0,0,1-.042.006l-1.389-4.331c-.232.092-.462.194-.684.307a5.146,5.146,0,0,0-.445.268,8.249,8.249,0,0,0-.715.5c-.45.324-.824.65-1.224.975-.765.657-1.495,1.324-2.2,2.008-1.412,1.364-2.744,2.786-4.016,4.258a71.152,71.152,0,0,0-5.921,7.839l-.132-.054c-.057.167-.1.326-.149.491-.24.374-.489.74-.722,1.119-4.141,6.638-6.479,14.013-11.217,19.213a28.736,28.736,0,0,1-3.915,3.551,46.732,46.732,0,0,1-4.6,2.9c-3.29,1.884-6.576,3.8-9.792,5.873a93.254,93.254,0,0,0-9.359,6.751,34.374,34.374,0,0,0-6.82,7.421,113.438,113.438,0,0,0-17.9-.011,23.339,23.339,0,0,0-2.445.41,7.58,7.58,0,0,0-1.3.37l-.673.247-.584.312a42.618,42.618,0,0,0-3.993,2.61c-2.5,1.784-4.919,3.608-7.354,5.407-4.873,3.558-9.73,7.241-14.929,10.041-.646.378-1.307.611-1.962.922-.686.23-1.207.41-2.066.619a16.039,16.039,0,0,0-4.4,1.907,23.967,23.967,0,0,0-6.758,6.467l-.077.109-.023.126-5,27.813,6.208-27.4a22.516,22.516,0,0,1,6.5-5.668,14.136,14.136,0,0,1,3.982-1.518c.621-.125,1.562-.354,2.317-.588.73-.3,1.512-.552,2.2-.91,5.618-2.713,10.619-6.187,15.691-9.544,2.52-1.692,5.024-3.407,7.538-5.038a40.591,40.591,0,0,1,3.714-2.207l.427-.209.4-.117a4.706,4.706,0,0,1,.893-.205c.627-.134,1.36-.174,2.052-.247a107.512,107.512,0,0,1,16.412.73l-.048,3.892-.038,3.028a9.273,9.273,0,0,1-.33,2.6,8.46,8.46,0,0,1-2.821,4.237,12.761,12.761,0,0,1-2.359,1.4l-2.7,1.428a111.967,111.967,0,0,0-10.455,6.375,40.794,40.794,0,0,0-9.224,8.36c-.309.445-.6.912-.891,1.368-.282.471-.5,1-.74,1.5-.381.991-.734,1.943-1.031,2.936-.628,1.964-1.117,3.959-1.548,5.952-.868,3.988-1.447,7.987-2.32,11.871a39.5,39.5,0,0,1-1.68,5.66,14.567,14.567,0,0,1-2.884,4.88,41.24,41.24,0,0,1-4.6,3.727,17.547,17.547,0,0,0-4.189,4.687c-2.213,3.593-3.221,7.645-4.08,11.6-.828,3.974-1.46,7.977-1.979,11.989q-1.509,12.043-1.891,24.172c-.057,2.02-.105,4.039-.09,6.063a35.815,35.815,0,0,0,.372,6.09c.73,4.139,3.508,7.36,5.432,10.824a16.583,16.583,0,0,1,1.192,2.738,20,20,0,0,1,.621,2.934c.3,1.987.489,4,.719,6A54.79,54.79,0,0,0,32.482,329a14.961,14.961,0,0,0,2.319,5.553,14.939,14.939,0,0,1-2.225-5.574,55.034,55.034,0,0,1-.847-5.98c-.2-2.006-.353-4.02-.625-6.024a20.213,20.213,0,0,0-.584-2.991,17.066,17.066,0,0,0-1.173-2.821c-1.914-3.558-4.58-6.772-5.206-10.75a35.81,35.81,0,0,1-.264-5.98c.017-2.01.1-4.024.188-6.036.389-8.046,1.14-16.077,2.269-24.044.579-3.982,1.272-7.944,2.152-11.857.9-3.88,1.966-7.787,4.064-11.062a15.971,15.971,0,0,1,3.9-4.221c.6-.469,1.244-.92,1.893-1.383a56.3,56.3,0,0,0-2.7,5.722A31.535,31.535,0,0,0,33.2,251.733a15.064,15.064,0,0,0,.663,5.31c.565,1.642,1.173,3.257,1.834,4.85,1.311,3.185,2.723,6.3,3.911,9.491a122.51,122.51,0,0,1,5.411,19.727,78.132,78.132,0,0,0,2.458,10.043,21.667,21.667,0,0,0,2.276,4.718c.994,1.468,2.242,2.667,3.217,4.028,2.008,2.7,3.112,5.99,4.133,9.226.96,3.242,1.7,6.707,3.524,9.7a11.371,11.371,0,0,0,3.558,3.821,12.323,12.323,0,0,0,4.932,1.673c3.407.454,6.91.42,9.97,1.966,3.116,1.435,5.12,4.394,7.586,6.758,1.194,1.23,2.426,2.43,3.719,3.562a17.411,17.411,0,0,0,4.275,2.878,12.232,12.232,0,0,0,5.059.9,24.539,24.539,0,0,1,5.112.32,44.336,44.336,0,0,1,9.809,2.985,44.478,44.478,0,0,0-9.794-3.081c-3.355-.776-6.958.211-10.11-1.3-3.093-1.466-5.473-4.053-7.866-6.467-1.186-1.234-2.349-2.493-3.51-3.752a14.137,14.137,0,0,0-4.11-3.148c-3.141-1.623-6.735-1.617-10.069-2.1a11.832,11.832,0,0,1-4.718-1.64,10.844,10.844,0,0,1-3.349-3.671c-1.738-2.926-2.432-6.287-3.374-9.6-1-3.277-2.085-6.63-4.156-9.485-1.014-1.435-2.246-2.646-3.162-4.034a20.949,20.949,0,0,1-2.137-4.541,77.422,77.422,0,0,1-2.332-9.945,123.638,123.638,0,0,0-5.275-19.945c-1.173-3.244-2.566-6.394-3.834-9.56-.64-1.579-1.223-3.181-1.759-4.785a13.749,13.749,0,0,1-.556-4.846,30.227,30.227,0,0,1,2.424-9.7,54.847,54.847,0,0,1,4.7-8.958l-.09-.059A16.911,16.911,0,0,0,44.623,228a41.417,41.417,0,0,0,1.861-5.9c.96-3.978,1.6-7.965,2.514-11.848q.31-1.337.665-2.654c-.059,1-.084,2.01-.063,3.022a19.9,19.9,0,0,0,.947,5.906,14.165,14.165,0,0,0,1.307,2.721,15.649,15.649,0,0,1,1.234,2.52,20.8,20.8,0,0,1,1.209,5.522,20.962,20.962,0,0,0,1.163,5.806,13.665,13.665,0,0,0,3.48,4.825,15.334,15.334,0,0,1,3.629,4.311,10.37,10.37,0,0,1,.745,5.5,57.582,57.582,0,0,1-.826,5.716c-.307,1.667-.646,3.332-.962,5l-.353.23c.084.1.171.174.257.266-.368,1.977-.694,3.965-.878,5.975a26.758,26.758,0,0,0,.04,5.835,40.573,40.573,0,0,0,1.223,5.693,32.938,32.938,0,0,0,4.99,10.445A32.891,32.891,0,0,1,62,276.4a40.143,40.143,0,0,1-1.121-5.678,26.2,26.2,0,0,1,.054-5.76c.2-1.88.531-3.74.9-5.6a11.168,11.168,0,0,0,2.227,1.477,23,23,0,0,0,3.114,1.307,41.065,41.065,0,0,0,6.461,1.52,42.082,42.082,0,0,0,6.58.538,21.865,21.865,0,0,0,6.5-.881,21.765,21.765,0,0,1-6.494.5,41.487,41.487,0,0,1-6.448-.906,39.995,39.995,0,0,1-6.208-1.841,21.7,21.7,0,0,1-2.859-1.4,8.324,8.324,0,0,1-2.265-1.832l-.341.222c.314-1.5.64-3.008.945-4.518.383-1.9.736-3.819.929-5.766a11.069,11.069,0,0,0-.719-5.881,16.1,16.1,0,0,0-3.717-4.595,12.768,12.768,0,0,1-3.2-4.568,20.145,20.145,0,0,1-1.01-5.566,21.8,21.8,0,0,0-1.18-5.814,16.673,16.673,0,0,0-1.272-2.713,12.731,12.731,0,0,1-1.167-2.522,18.715,18.715,0,0,1-.786-5.534,42.167,42.167,0,0,1,1.28-10.012l.013-.023L53,199.409a38.581,38.581,0,0,1,8.782-7.665,108.993,108.993,0,0,1,10.3-6.057l2.671-1.361a15.4,15.4,0,0,0,2.847-1.657c.268-.207.506-.452.753-.684a41.543,41.543,0,0,0,4.744,4.48,32.968,32.968,0,0,0,7.157,4.482c.636.32,1.332.536,1.995.807.563.251,1,.414,1.5.674a12.517,12.517,0,0,1,2.686,2.123,25.838,25.838,0,0,1,4.229,6.055,42.971,42.971,0,0,1,2.918,7.059c.192.6.37,1.221.5,1.8.088.339.1.492.176.839a4.96,4.96,0,0,0,.333.985l.364.554a14.48,14.48,0,0,0,1.518,1.723l-3.988,21.582a11.481,11.481,0,0,0-3.551,3.233,10.13,10.13,0,0,0-1.7,4.626l-1.774,9.6,2.112-9.531a9.685,9.685,0,0,1,1.78-4.39,10.913,10.913,0,0,1,3.595-3.02l.149-.077.036-.165,4.585-20.693.224.207c4.081,3.558,8.366,6.672,12.633,9.824a13.645,13.645,0,0,1,2.773,2.46,23.045,23.045,0,0,1,2.194,3.089,35.732,35.732,0,0,1,3.141,7.05,32.2,32.2,0,0,1,1.527,7.58,32.837,32.837,0,0,1-.573,7.747c-.822,5.191-2.368,10.32-2.579,15.7a10.4,10.4,0,0,0,.625,3.991,15.1,15.1,0,0,0,1.006,1.744q.509.845.968,1.721a44.136,44.136,0,0,1,2.995,7.329,44.5,44.5,0,0,0-2.74-7.458q-.434-.9-.916-1.772a14.777,14.777,0,0,1-.918-1.725,9.954,9.954,0,0,1-.452-3.813c.389-5.227,2.1-10.29,3.129-15.509a34,34,0,0,0,.874-8.027,33.654,33.654,0,0,0-1.313-8,37.544,37.544,0,0,0-3.047-7.542A24.944,24.944,0,0,0,125,225.863a13.912,13.912,0,0,0-1.441-1.581c-.56-.519-1.081-.924-1.6-1.33-4.133-3.284-8.307-6.563-12.085-10.106a19.729,19.729,0,0,1-2.443-2.675l-.163-.253c0,.008,0,.015-.01.023-.052-.3-.109-.809-.184-1.111-.14-.713-.307-1.374-.492-2.041a46.11,46.11,0,0,0-2.868-7.709,29.273,29.273,0,0,0-4.6-7.071,16.146,16.146,0,0,0-3.43-2.893c-.65-.387-1.445-.73-2.083-1.029-.55-.253-1.121-.443-1.657-.742a33.809,33.809,0,0,1-10.914-9.177,11.193,11.193,0,0,0,.439-1.119,12.293,12.293,0,0,0,.5-3.371l.086-3.024.161-5.643a28.949,28.949,0,0,1,6.935-7.638,90.564,90.564,0,0,1,9.109-6.348c3.169-1.966,6.438-3.807,9.73-5.624a50.312,50.312,0,0,0,5.022-3.064,32.618,32.618,0,0,0,4.526-3.978,43.929,43.929,0,0,0,6.565-9.811c.278-.529.55-1.052.824-1.577a40.989,40.989,0,0,0,.37,5.8,45.672,45.672,0,0,0,5.62,16.63c.416.724.839,1.435,1.261,2.152l-.079.192c.08.029.159.054.238.08,2.426,4.116,4.949,8.117,7.7,12.062a55.47,55.47,0,0,0,5.492,6.726,33.23,33.23,0,0,0,6.9,5.4,59.8,59.8,0,0,1,7.128,4.354,13.117,13.117,0,0,1,4.823,6.13,7.709,7.709,0,0,1,.188,3.8c-.272,1.267-.7,2.732-1,4.087-.648,2.763-1.242,5.532-1.8,8.308s-1.085,5.559-1.552,8.354a71.859,71.859,0,0,0-1.025,8.46,10.007,10.007,0,0,0,1.012,4.2,21.967,21.967,0,0,0,2.121,3.7,43.415,43.415,0,0,0,5.526,6.434,43.237,43.237,0,0,1-5.289-6.594,21.634,21.634,0,0,1-1.966-3.71,9.528,9.528,0,0,1-.837-4.011,71.387,71.387,0,0,1,1.3-8.326c.558-2.765,1.173-5.519,1.822-8.264s1.336-5.484,2.069-8.2c.354-1.4.772-2.631,1.15-4.116a9.385,9.385,0,0,0-.08-4.591,14.87,14.87,0,0,0-5.22-7.207,60.729,60.729,0,0,0-7.168-4.733,30.821,30.821,0,0,1-6.247-5.231,52.912,52.912,0,0,1-5-6.572c-1.9-2.924-3.714-5.959-5.453-9.027,1.24.335,2.483.64,3.752.91a48.98,48.98,0,0,0,8.849,1.111" transform="translate(-10.767 -98.856)"></path>
              <path id="Tracé_668" data-name="Tracé 668" d="M218.8,355.006c-.439-1.171-.9-2.336-1.4-3.482-.253-.573-.523-1.14-.826-1.692a4.221,4.221,0,0,0-1.186-1.483,11.5,11.5,0,0,0-3.564-1.23c-1.228-.261-2.47-.443-3.712-.606-2.468-.347-5.011-.5-7.4-.968-.558-.109-.552-.782-.406-1.345a8.447,8.447,0,0,1,.673-1.7,33.034,33.034,0,0,1,1.9-3.206c1.345-2.112,2.882-4.047,4.16-6.283a7.418,7.418,0,0,0,.077-3.884,17.437,17.437,0,0,0-1.167-3.629,29.754,29.754,0,0,0-3.98-6.442c-.782-.993-1.613-1.939-2.46-2.872a25.3,25.3,0,0,1-2.221-2.934,45.042,45.042,0,0,1-3.47-6.553,85.442,85.442,0,0,1-4.555-14.18,91.641,91.641,0,0,1-2.213-14.724c-.109-1.761-.142-3.526-.128-5.289.3-.719.627-1.424.92-2.146l-.866-.337,0-.046c2.7-11.349,6.149-22.532,9.893-33.613l.774-2.292.385-1.167c.113-.446.243-.9.333-1.349a31.14,31.14,0,0,0,.446-5.082,86.443,86.443,0,0,0-.487-9.841,124.552,124.552,0,0,0-2.085-13.245c.724.473,1.439.962,2.115,1.474a33.021,33.021,0,0,1,5.153,4.769,22.828,22.828,0,0,1,3.742,5.787,50.739,50.739,0,0,1,2.154,6.846c1.251,4.775,2.273,9.623,3.305,14.511.259,1.223.529,2.451.832,3.692a20.033,20.033,0,0,0,.563,1.943l.228.561a3.819,3.819,0,0,0,.3.462l.238.285c.105.107.309.347.5.581,1.516,1.885,2.991,3.913,4.428,5.921s2.84,4.062,4.177,6.141a45.688,45.688,0,0,1,3.576,6.36,11.646,11.646,0,0,1,.644,3.422c.1,1.221.169,2.453.2,3.689.065,2.472.044,4.953-.079,7.427-.057,1.238-.149,2.472-.266,3.7a19.487,19.487,0,0,1-.594,3.608c-.657,2.349-1.7,4.66-2.328,7.1a14.838,14.838,0,0,0-.18,7.5,15.918,15.918,0,0,0,3.737,6.438,15.791,15.791,0,0,1-3.461-6.505,14.414,14.414,0,0,1,.452-7.276c.7-2.37,1.815-4.587,2.6-7.013a20.333,20.333,0,0,0,.763-3.733c.169-1.246.309-2.493.412-3.742.22-2.5.337-5,.366-7.517.013-1.257,0-2.516-.065-3.783a13.141,13.141,0,0,0-.605-3.915,47.083,47.083,0,0,0-3.478-6.8c-1.28-2.163-2.619-4.285-4-6.381s-2.765-4.162-4.3-6.222a10.151,10.151,0,0,0-.7-.857.912.912,0,0,1-.09-.1.119.119,0,0,1,.046.015.094.094,0,0,1,.05.071l-.105-.312c-.149-.477-.285-1.081-.408-1.665-.241-1.188-.462-2.4-.673-3.631-.843-4.9-1.69-9.851-2.78-14.77a53.8,53.8,0,0,0-2.064-7.481,26.679,26.679,0,0,0-4.081-6.889,37.146,37.146,0,0,0-5.589-5.589,40.321,40.321,0,0,0-6.124-4.126c-1.347-6.122-2.3-12.536-3.292-18.855-.975-6.354-1.889-12.723-2.782-19.1q-2.673-19.119-5.107-38.281l-4.507.6q2.667,19.16,5.543,38.277c.966,6.375,1.953,12.748,3,19.116,1.081,6.381,2.079,12.706,3.572,19.142A128.56,128.56,0,0,1,194.949,217a83.422,83.422,0,0,1,.621,9.439c-.01.757-.025,1.52-.069,2.269a7.926,7.926,0,0,0-3.006.862,15.764,15.764,0,0,0-3.052,2.089,42.508,42.508,0,0,0-4.677,4.825c-2.823,3.328-5.327,6.808-7.958,10.056-.657.807-1.324,1.6-2.008,2.322a9.592,9.592,0,0,1-2,1.728,2.577,2.577,0,0,1-.243.111c-.224.029-.45.056-.69.071-.475.034-.97.048-1.47.044-1.006-.012-2.037-.075-3.07-.169s-2.073-.217-3.112-.358a10.29,10.29,0,0,1-2.736-.73,10.138,10.138,0,0,1-4.386-3.528c-.3-.422-.456-.726-.835-1.332a6.789,6.789,0,0,0-1.268-1.42,6.675,6.675,0,0,0-3.42-1.512c-1.362-.132-2.194.027-3.256-.084a19.187,19.187,0,0,1-3.02-.439,19.628,19.628,0,0,1-10.4-6.193,6.413,6.413,0,0,1-1.291-2.637,8.674,8.674,0,0,0-1.351-3.081,3.076,3.076,0,0,0-1.454-1.088,2.723,2.723,0,0,0-1.813.082,7.065,7.065,0,0,1-3.014.307,23.812,23.812,0,0,1-6.137-1.458,23.4,23.4,0,0,1-2.907-1.288,5.877,5.877,0,0,1-2.434-1.977,5.935,5.935,0,0,0,2.363,2.1,26.221,26.221,0,0,0,9.058,3.194,7.692,7.692,0,0,0,3.305-.2,1.921,1.921,0,0,1,2.338.839,7.758,7.758,0,0,1,1.062,2.79,7.5,7.5,0,0,0,1.36,3.114,21.131,21.131,0,0,0,14.162,7.8c1.058.157,2.368.079,3.121.213a4.578,4.578,0,0,1,2.3,1.142,4.512,4.512,0,0,1,.807.994c.176.3.5.956.8,1.41a12.55,12.55,0,0,0,3.043,3.25,80.283,80.283,0,0,1-6.774,4.557,37.268,37.268,0,0,1-3.938,2.045,7.42,7.42,0,0,1-4,.811l-4.461-.918c-.765-.138-1.441-.335-2.274-.427a5.7,5.7,0,0,0-2.432.33,6.041,6.041,0,0,0-2.046,1.284c-.56.494-1.131.975-1.717,1.437a25.347,25.347,0,0,1-3.685,2.485c-1.278.651-2.736,1.284-4.058.958a10.385,10.385,0,0,0-4.626-.01,19.667,19.667,0,0,0-4.344,1.429,11.15,11.15,0,0,0-3.792,2.562c-1.882,2.4-3.461,4.959-5.11,7.486q-2.44,3.808-4.808,7.663,2.452-3.8,4.967-7.559c1.694-2.483,3.348-5.032,5.237-7.341a10.775,10.775,0,0,1,3.7-2.38,19.142,19.142,0,0,1,4.254-1.3,9.808,9.808,0,0,1,4.342.088,6.8,6.8,0,0,0,4.587-.924,26.141,26.141,0,0,0,3.859-2.485c.607-.458,1.2-.937,1.782-1.429a5.1,5.1,0,0,1,1.778-1.071,4.7,4.7,0,0,1,2.02-.232c.663.084,1.441.31,2.158.458l4.378,1a5.965,5.965,0,0,0,1.3.121,7.156,7.156,0,0,0,1.219-.176,15.737,15.737,0,0,0,2.246-.717,38.39,38.39,0,0,0,4.129-2.033,82.91,82.91,0,0,0,7.462-4.815c.282.159.554.337.849.475A13.026,13.026,0,0,0,163.781,253c1.065.194,2.135.37,3.217.517s2.177.266,3.3.33c.561.031,1.132.044,1.723.029.293-.008.6-.029.9-.056a4.089,4.089,0,0,0,1.269-.376,11.968,11.968,0,0,0,2.962-2.253c.812-.791,1.554-1.6,2.278-2.412,2.872-3.256,5.5-6.59,8.326-9.642a38.7,38.7,0,0,1,4.384-4.166,11.533,11.533,0,0,1,2.265-1.426c.05-.023.094-.035.144-.056l-.613,1.918a366.549,366.549,0,0,0-10.163,37.421q-.581,2.866-1.077,5.754c-.952,2.129-1.924,4.254-2.943,6.348a118.356,118.356,0,0,1-8.109,14.35,37.879,37.879,0,0,1-5.187,6.283,17.256,17.256,0,0,1-7,3.844,64.758,64.758,0,0,1-16.234,2.434,142.967,142.967,0,0,1-16.533-.3,10.013,10.013,0,0,0-4.156.845c-1.307.492-2.57,1.065-3.838,1.606a27.275,27.275,0,0,1-3.857,1.4,7.275,7.275,0,0,1-1.987.251,9.87,9.87,0,0,1-1.974-.429c-2.665-.726-5.317-1.523-8.048-2.05a10.806,10.806,0,0,0-2.091-.22,2.217,2.217,0,0,0-.55.08,1.006,1.006,0,0,0-.464.349l-.7.763q-1.414,1.509-2.936,2.916a42.727,42.727,0,0,1-6.534,5.063,17.4,17.4,0,0,1-7.707,2.809,17.472,17.472,0,0,0,7.76-2.721,43.073,43.073,0,0,0,6.62-5q1.541-1.391,2.982-2.892l.713-.755a.712.712,0,0,1,.349-.268,1.889,1.889,0,0,1,.475-.061,10.58,10.58,0,0,1,2.022.24c2.7.554,5.338,1.383,8,2.142a10.071,10.071,0,0,0,2.064.471,7.725,7.725,0,0,0,2.117-.238,28.027,28.027,0,0,0,3.947-1.376c1.282-.527,2.547-1.083,3.834-1.55a9.452,9.452,0,0,1,3.911-.761,143.884,143.884,0,0,0,16.613.512,65.62,65.62,0,0,0,16.512-2.276,18.188,18.188,0,0,0,7.446-4,38.818,38.818,0,0,0,5.417-6.427,119.536,119.536,0,0,0,8.339-14.429c.333-.671.636-1.355.964-2.027-.391,2.853-.7,5.722-.841,8.617l-.161,4.829a43.5,43.5,0,0,1-.475,4.689,31,31,0,0,1-2.767,8.92,28.624,28.624,0,0,1-5.48,7.555c-1.111,1.119-2.3,2.169-3.512,3.238a16.544,16.544,0,0,0-3.428,3.7,35.776,35.776,0,0,1-3.077,3.5l-3.348,3.476c-2.242,2.315-4.474,4.643-6.672,7.005a227.412,227.412,0,0,0-24.2,30.17c-7.021,10.773-12.953,22.561-15.2,35.3,2.451-12.7,8.55-24.341,15.713-34.96a205.647,205.647,0,0,1,18.067-22.7,112.119,112.119,0,0,0-1.817,14.369c-.284,5.486-.224,11.079,1.213,16.46a16.4,16.4,0,0,0,3.905,7.31,14.52,14.52,0,0,1,4.384,6.7,63.9,63.9,0,0,1,3.144,16.044,64.069,64.069,0,0,0-2.792-16.17,22.154,22.154,0,0,0-1.677-3.788,11.4,11.4,0,0,0-1.2-1.717c-.445-.556-1.017-.993-1.46-1.464a15.754,15.754,0,0,1-3.579-7.107c-1.278-5.264-1.215-10.782-.809-16.19a111.6,111.6,0,0,1,2.541-16.1l-.272-.065q2.44-2.647,4.928-5.246c2.227-2.319,4.49-4.6,6.764-6.883l3.411-3.428a34.262,34.262,0,0,0,3.338-3.714,15.154,15.154,0,0,1,3.181-3.288c1.219-1.04,2.462-2.106,3.641-3.254a30.4,30.4,0,0,0,5.936-7.925,32.878,32.878,0,0,0,3.089-9.418,45.549,45.549,0,0,0,.579-4.909l.236-4.825a118.449,118.449,0,0,1,2.372-16.2c.033.617.052,1.234.1,1.849a92.635,92.635,0,0,0,2.43,14.894,86.62,86.62,0,0,0,4.792,14.3,46.046,46.046,0,0,0,3.629,6.643,26,26,0,0,0,2.343,3.01c.845.908,1.675,1.83,2.455,2.794a29.147,29.147,0,0,1,3.966,6.239,16.725,16.725,0,0,1,1.167,3.482,7.059,7.059,0,0,1,.017,3.518c-1.18,2.123-2.731,4.15-4.047,6.272a33.629,33.629,0,0,0-1.88,3.275,8.645,8.645,0,0,0-.68,1.792,2.524,2.524,0,0,0-.056,1.016.994.994,0,0,0,.743.786c2.518.466,4.992.567,7.479.885,1.24.146,2.478.312,3.7.556a11.4,11.4,0,0,1,3.508,1.157,8.25,8.25,0,0,1,1.987,3.074c.519,1.136.991,2.294,1.445,3.459q1.348,3.5,2.51,7.067-1.124-3.578-2.422-7.1" transform="translate(54.36 -78.431)"></path>
            </g>
          </g>
        </g>
        <path id="Tracé_669" data-name="Tracé 669" d="M184.582,96.668s42.332-2.112,63.653,24.4l-5,24.611-21.816-4.43.5,2.993c-.132.648,22.707,4.631,22.707,4.631l-4.2,24.536-16.418-3.334s-6.019,7.887-20.1,10.851-47.494,6.528-63.538-19.154-2.1-42.2.065-44.514a66.652,66.652,0,0,1,44.146-20.595" transform="translate(121.623 88.527)" fill="#ff725e"></path>
        <g id="Groupe_42" data-name="Groupe 42" transform="translate(254.376 185.157)" opacity="0.3">
          <g id="Groupe_41" data-name="Groupe 41">
            <g id="Groupe_40" data-name="Groupe 40" clip-path="url(#clip-path-8)">
              <path id="Tracé_670" data-name="Tracé 670" d="M184.582,96.668s42.332-2.112,63.653,24.4l-5,24.611-21.816-4.43.5,2.993c-.132.648,22.707,4.631,22.707,4.631l-4.2,24.536-16.418-3.334s-6.019,7.887-20.1,10.851-47.494,6.528-63.538-19.154-2.1-42.2.065-44.514a66.652,66.652,0,0,1,44.146-20.595" transform="translate(-132.753 -96.63)"></path>
            </g>
          </g>
        </g>
        <path id="Tracé_671" data-name="Tracé 671" d="M196.578,122.321c-1.368,6.733-3.821,11.919-5.482,11.581s-1.9-6.068-.529-12.8,3.821-11.919,5.482-11.581,1.9,6.068.529,12.8" transform="translate(173.776 100.323)" fill="#263238"></path>
        <path id="Tracé_672" data-name="Tracé 672" d="M194.89,136.742c-1.368,6.733-3.821,11.919-5.482,11.581s-1.9-6.069-.529-12.8,3.821-11.919,5.482-11.581,1.9,6.068.529,12.8" transform="translate(172.229 113.535)" fill="#263238"></path>
        <path id="Tracé_673" data-name="Tracé 673" d="M183.553,135.44a4.38,4.38,0,0,1-1.395-.811,17.552,17.552,0,0,1-3.2-3.029,19.941,19.941,0,0,1,.96-26.784,17.483,17.483,0,0,1,3.407-2.792,4.369,4.369,0,0,1,1.449-.709c.111.161-1.943,1.249-4.334,3.976a20.136,20.136,0,0,0-.929,25.872c2.192,2.891,4.162,4.124,4.041,4.277" transform="translate(159.649 92.815)" fill="#263238"></path>
        <path id="Tracé_674" data-name="Tracé 674" d="M178.287,142.536c-.094.065-.935-.893-1.713-2.777a14.974,14.974,0,0,1,2.282-15.057c1.3-1.569,2.388-2.234,2.458-2.146a30.859,30.859,0,0,1-1.9,2.571,16.4,16.4,0,0,0-2.181,14.392,30.715,30.715,0,0,1,1.048,3.016" transform="translate(160.78 112.275)" fill="#263238"></path>
        <path id="Tracé_675" data-name="Tracé 675" d="M197.027,126.7c-.056.27-3.907-.284-8.6-1.238s-8.46-1.947-8.406-2.217,3.907.286,8.605,1.238,8.46,1.947,8.4,2.217" transform="translate(164.925 112.851)" fill="#fff"></path>
        <path id="Tracé_676" data-name="Tracé 676" d="M200.263,115.392c-.209.217-4.03-3.382-9.37-6.971-5.319-3.62-10.083-5.825-9.958-6.1.084-.234,5.1,1.592,10.518,5.273,5.432,3.654,9,7.632,8.811,7.8" transform="translate(165.764 93.723)" fill="#fff"></path>
        <path id="Tracé_677" data-name="Tracé 677" d="M141.391,118.849a12.184,12.184,0,0,1,1.656-2.183,41.974,41.974,0,0,1,5.394-5.176,55.815,55.815,0,0,1,22.128-10.6,77.6,77.6,0,0,1,24.536-1.525c3.139.286,5.662.657,7.395.973a13.327,13.327,0,0,1,2.667.607,15.332,15.332,0,0,1-2.723-.224c-1.744-.2-4.267-.46-7.393-.653A83.824,83.824,0,0,0,170.8,101.86a58.513,58.513,0,0,0-21.923,10.184c-4.961,3.805-7.329,6.948-7.485,6.8" transform="translate(129.535 90.71)" fill="#fff"></path>
        <g id="Groupe_45" data-name="Groupe 45" transform="translate(337.124 133.903)" opacity="0.3">
          <g id="Groupe_44" data-name="Groupe 44">
            <g id="Groupe_43" data-name="Groupe 43" clip-path="url(#clip-path-9)">
              <path id="Tracé_678" data-name="Tracé 678" d="M194.382,99.88c-5.049,15.241-12.258,26.566-16.1,25.293s-2.863-14.661,2.186-29.9,12.258-26.566,16.1-25.293,2.863,14.661-2.186,29.9" transform="translate(-175.937 -69.881)"></path>
            </g>
          </g>
        </g>
        <g id="Groupe_48" data-name="Groupe 48" transform="translate(228.345 132.591)" opacity="0.2">
          <g id="Groupe_47" data-name="Groupe 47">
            <g id="Groupe_46" data-name="Groupe 46" clip-path="url(#clip-path-10)">
              <path id="Tracé_679" data-name="Tracé 679" d="M187.983,73.331c-21.367-8.682-45.785-2.978-62.5,10.445-3.547,2.847-7.166,8.97-6.141,13.4,1.169,5.043,7.745,6.908,12.737,5.532s9.115-4.852,13.844-6.961c11.963-5.335,26.529-1.466,38.438-6.917,3.215-1.47,6.251-3.742,7.667-6.982s-.5-7.8-4.047-8.517" transform="translate(-119.168 -69.196)" fill="#fff"></path>
            </g>
          </g>
        </g>
        <path id="Tracé_680" data-name="Tracé 680" d="M358.472,79.092s-.333-.194-.987-.567c-.642-.389-1.615-.941-2.9-1.644a115.148,115.148,0,0,0-11.606-5.474A132.425,132.425,0,0,0,323.657,65.1a137.715,137.715,0,0,0-26.629-4.022c-1.247-.067-2.508-.215-3.788-.217h-3.884c-2.617.042-5.3-.115-8.023.171l-8.339.6L264.4,62.887a165.276,165.276,0,0,0-36.07,10.547,186.56,186.56,0,0,0-53.174,34.8,152.083,152.083,0,0,0-15.569,16.623l-.113.142-.167.042c-2.955.751-6.132,1.589-9.311,2.48-15.394,4.342-30.193,9.412-44.25,14.883a308.285,308.285,0,0,0-39.4,18.294c-12.083,6.749-22.956,14.319-31.858,22.821a113.081,113.081,0,0,0-20.884,26.928,117.684,117.684,0,0,0-6.329,13.505,110.6,110.6,0,0,0-4.024,12.681A95.836,95.836,0,0,0,.4,257.728a91.552,91.552,0,0,0,.709,13.459c.234,1.5.412,2.652.538,3.47.117.782.151,1.19.151,1.19s-.1-.395-.251-1.173c-.149-.814-.362-1.964-.638-3.459a86.332,86.332,0,0,1-.9-13.494,94.726,94.726,0,0,1,2.7-21.22,109.667,109.667,0,0,1,3.972-12.777,117.643,117.643,0,0,1,6.3-13.618,113.338,113.338,0,0,1,20.932-27.185C42.857,174.335,53.779,166.7,65.9,159.9a307,307,0,0,1,39.5-18.4c14.082-5.5,28.9-10.581,44.338-14.935,3.187-.893,6.371-1.732,9.337-2.485l-.278.184a152.718,152.718,0,0,1,15.693-16.745A186.83,186.83,0,0,1,227.98,72.6a165.348,165.348,0,0,1,36.29-10.514l8.642-1.236q4.274-.29,8.385-.573c2.736-.274,5.432-.109,8.063-.14l3.9.017c1.286.008,2.552.161,3.806.234a136.825,136.825,0,0,1,26.723,4.183,129.983,129.983,0,0,1,19.33,6.486,105.829,105.829,0,0,1,11.556,5.655c1.274.732,2.234,1.313,2.861,1.73a9.529,9.529,0,0,1,.933.651" transform="translate(0 55.074)" fill="#263238"></path>
        <path id="Tracé_681" data-name="Tracé 681" d="M224.138,165.364a9.829,9.829,0,0,1-1.111,1.175c-.385.362-.826.858-1.426,1.351q-.928.744-2.1,1.677a47.574,47.574,0,0,1-15.437,7.189,73.994,73.994,0,0,1-25.169,2.154,51.824,51.824,0,0,1-28.712-10.939,47.3,47.3,0,0,1-16.623-25.77,35.4,35.4,0,0,1-.529-13.555,33.252,33.252,0,0,1,3.89-11.165A39.331,39.331,0,0,1,148.471,105a33.773,33.773,0,0,1,3.924-2.47,10.069,10.069,0,0,1,1.431-.751,9.718,9.718,0,0,1-1.328.924,43.015,43.015,0,0,0-3.8,2.612,40.242,40.242,0,0,0-11.156,12.509,32.835,32.835,0,0,0-3.689,10.951,34.8,34.8,0,0,0,.606,13.218,46.718,46.718,0,0,0,16.351,25.2,51.3,51.3,0,0,0,28.169,10.8,74.7,74.7,0,0,0,24.9-1.918,49.21,49.21,0,0,0,15.394-6.825l2.133-1.589c.615-.466,1.073-.933,1.477-1.27a9.715,9.715,0,0,1,1.249-1.027" transform="translate(121.497 93.243)" fill="#263238"></path>
        <path id="Tracé_682" data-name="Tracé 682" d="M194.6,100.086a6.073,6.073,0,0,1,.287-1.238c.247-.9.565-2.064.96-3.5a93.935,93.935,0,0,0,2.585-13.061,29.372,29.372,0,0,0-.092-9.054c-.316-1.5-1.3-3.2-2.855-2.568a10.253,10.253,0,0,0-3.878,3.348A53.506,53.506,0,0,0,185.761,84a109.976,109.976,0,0,0-7.852,23.7,53.367,53.367,0,0,0-1.278,11.508,10.234,10.234,0,0,0,1.111,5c.874,1.439,2.673.663,3.825-.356a29.418,29.418,0,0,0,5.48-7.209,94.067,94.067,0,0,0,5.722-12.02c.544-1.391.981-2.512,1.32-3.382a6.114,6.114,0,0,1,.51-1.165,6.118,6.118,0,0,1-.318,1.23c-.236.8-.609,1.968-1.148,3.455A82.924,82.924,0,0,1,187.658,117a29.506,29.506,0,0,1-5.559,7.49,5.7,5.7,0,0,1-2.372,1.309,2.49,2.49,0,0,1-2.7-1.071c-1.1-1.675-1.2-3.606-1.32-5.486a53.444,53.444,0,0,1,1.24-11.731,107.888,107.888,0,0,1,7.927-23.927,53.288,53.288,0,0,1,6.009-10.148c1.221-1.435,2.455-2.924,4.332-3.614a2.491,2.491,0,0,1,2.8.749,5.732,5.732,0,0,1,1.123,2.466,29.494,29.494,0,0,1-.012,9.328,83.023,83.023,0,0,1-2.913,13.082c-.456,1.516-.855,2.677-1.142,3.457a5.992,5.992,0,0,1-.479,1.178" transform="translate(160.97 63.817)" fill="#263238"></path>
        <path id="Tracé_683" data-name="Tracé 683" d="M248.032,68.123a1.532,1.532,0,0,1-.454-.044l-1.309-.228c-1.155-.19-2.832-.579-5.02-.924-4.361-.78-10.709-1.709-18.6-2.351a191.154,191.154,0,0,0-27.773-.243,154.807,154.807,0,0,0-33.458,5.651,122.827,122.827,0,0,0-30.894,13.888,158.907,158.907,0,0,0-22.078,16.814c-5.865,5.315-10.353,9.9-13.4,13.122q-2.216,2.345-3.5,3.712l-.927.952c-.213.211-.326.314-.341.3a1.606,1.606,0,0,1,.264-.37c.232-.276.51-.611.853-1.019.766-.881,1.864-2.211,3.372-3.842,2.96-3.3,7.379-7.977,13.206-13.379a154.241,154.241,0,0,1,22.063-17.071A121.67,121.67,0,0,1,161.14,69.026a152.463,152.463,0,0,1,33.682-5.611,184,184,0,0,1,27.888.458,173.278,173.278,0,0,1,18.612,2.673c2.181.4,3.85.855,4.99,1.109l1.288.324a1.592,1.592,0,0,1,.433.144" transform="translate(82.705 57.795)" fill="#fff"></path>
        <path id="Tracé_684" data-name="Tracé 684" d="M16.933,254.444a7.511,7.511,0,0,1-.625-1.261c-.406-.937-.943-2.167-1.613-3.7q-.523-1.227-1.146-2.688c-.381-1-.711-2.11-1.109-3.29a77.026,77.026,0,0,1-2.4-8.123q-.546-2.3-1.144-4.8c-.381-1.673-.577-3.451-.887-5.271a113.15,113.15,0,0,1-1.244-11.725,129.005,129.005,0,0,1,1.7-26.935A128.964,128.964,0,0,1,16.215,160.8a113.2,113.2,0,0,1,5.235-10.57c.924-1.6,1.725-3.2,2.662-4.633s1.864-2.794,2.736-4.1a77.07,77.07,0,0,1,5.072-6.783c.784-.97,1.479-1.9,2.183-2.7q1.092-1.153,2.006-2.123c1.161-1.207,2.091-2.175,2.8-2.911A7.529,7.529,0,0,1,39.929,126a7.323,7.323,0,0,1-.878,1.108L36.4,130.142l-1.933,2.171c-.678.816-1.349,1.759-2.11,2.74a81.54,81.54,0,0,0-4.921,6.831q-1.276,1.966-2.665,4.11c-.914,1.435-1.692,3.035-2.594,4.631a115.843,115.843,0,0,0-5.112,10.527,131.658,131.658,0,0,0-7.615,25.675A131.8,131.8,0,0,0,7.68,213.543,115.931,115.931,0,0,0,8.824,225.19c.291,1.811.466,3.579.826,5.243s.73,3.256,1.073,4.779a81.54,81.54,0,0,0,2.246,8.117c.372,1.182.674,2.3,1.029,3.3q.575,1.472,1.06,2.708l1.435,3.763a7.5,7.5,0,0,1,.441,1.343" transform="translate(6.097 115.439)" fill="#fff"></path>
        <path id="Tracé_685" data-name="Tracé 685" d="M94.9,290.486a3.88,3.88,0,0,1-.864-.537l-2.361-1.7c-2.046-1.479-4.936-3.715-8.437-6.567a271.96,271.96,0,0,1-48.262-51.25c-2.637-3.668-4.7-6.685-6.049-8.816-.623-.989-1.134-1.8-1.55-2.458a3.9,3.9,0,0,1-.483-.895,3.943,3.943,0,0,1,.65.782c.456.63,1.019,1.406,1.705,2.353,1.449,2.06,3.593,5.013,6.295,8.615a319.88,319.88,0,0,0,22.628,26.93,319.938,319.938,0,0,0,25.518,24.2c3.436,2.913,6.252,5.231,8.224,6.8l2.246,1.841a3.984,3.984,0,0,1,.742.7" transform="translate(24.64 199.968)" fill="#fff"></path>
        <path id="Tracé_686" data-name="Tracé 686" d="M159.893,23.334c-.646,1.523-6.009.705-11.98-1.824s-10.29-5.816-9.646-7.337,6.009-.707,11.982,1.822,10.29,5.816,9.644,7.339" transform="translate(126.617 12.282)" fill="#263238"></path>
        <path id="Tracé_687" data-name="Tracé 687" d="M156.706,31.047a8.638,8.638,0,0,1-3.614.87,20.558,20.558,0,0,1-16.408-6.172,8.589,8.589,0,0,1-2.144-3.035c.136-.1.983,1.029,2.637,2.529a23.129,23.129,0,0,0,15.879,5.973c2.232-.038,3.612-.33,3.65-.165" transform="translate(123.253 20.8)" fill="#263238"></path>
        <path id="Tracé_688" data-name="Tracé 688" d="M148.993,21.314a7.335,7.335,0,0,1-1.05,1.8,30.475,30.475,0,0,1-3.669,4.327,34.926,34.926,0,0,1-16.255,9.029,34.928,34.928,0,0,1-18.583-.749,30.212,30.212,0,0,1-5.223-2.215,7.352,7.352,0,0,1-1.746-1.131c.088-.172,2.633,1.374,7.172,2.669a36.448,36.448,0,0,0,18.148.454,36.464,36.464,0,0,0,16-8.569c3.472-3.2,5.047-5.727,5.2-5.611" transform="translate(93.875 19.523)" fill="#263238"></path>
        <path id="Tracé_689" data-name="Tracé 689" d="M133.733,33.334a3.773,3.773,0,0,1-.889.448l-2.608,1.1c-1.142.454-2.531,1.027-4.106,1.778s-3.413,1.5-5.348,2.543c-1.96.985-4.1,2.073-6.321,3.386-2.271,1.228-4.578,2.734-7.034,4.273A133.767,133.767,0,0,0,79.128,71.6c-1.853,2.228-3.654,4.315-5.174,6.4-1.6,2.027-2.962,4-4.2,5.814-1.288,1.78-2.29,3.5-3.233,4.961s-1.709,2.761-2.311,3.83c-.577.979-1.052,1.784-1.439,2.439a3.635,3.635,0,0,1-.561.82,3.687,3.687,0,0,1,.383-.914c.345-.68.766-1.518,1.278-2.533.552-1.1,1.259-2.435,2.173-3.93s1.866-3.25,3.123-5.064c1.207-1.847,2.549-3.859,4.127-5.919,1.5-2.121,3.288-4.24,5.135-6.5a127.335,127.335,0,0,1,28.5-24.916c2.487-1.529,4.827-3.018,7.128-4.221,2.253-1.29,4.426-2.349,6.417-3.3,1.966-1,3.83-1.726,5.438-2.42s3.018-1.228,4.185-1.629l2.683-.927a3.686,3.686,0,0,1,.956-.259" transform="translate(56.989 30.533)" fill="#fff"></path>
        <path id="Tracé_690" data-name="Tracé 690" d="M102.791,36.87c-.3-.105,1.631-4.771,1.843-10.867.284-6.1-1.259-10.9-.954-10.982.207-.121,2.238,4.7,1.953,11.022-.23,6.318-2.646,10.964-2.842,10.826" transform="translate(94.145 13.761)" fill="#fff"></path>
        <path id="Tracé_691" data-name="Tracé 691" d="M140.562,17.03c.251.084-.182,1.947-1.481,3.874s-2.851,3.041-3.024,2.84c-.194-.209.981-1.575,2.194-3.4s2.043-3.418,2.311-3.319" transform="translate(124.631 15.598)" fill="#fff"></path>
        <path id="Tracé_692" data-name="Tracé 692" d="M182.015,77.873c-.2-.011.253-3.259-.36-8.435a41.367,41.367,0,0,0-22.093-32.059c-4.618-2.416-7.812-3.152-7.753-3.34a8.805,8.805,0,0,1,2.242.468,35.361,35.361,0,0,1,5.829,2.242,40.014,40.014,0,0,1,22.477,32.617,35.475,35.475,0,0,1,.021,6.247,8.776,8.776,0,0,1-.362,2.261" transform="translate(139.08 31.174)" fill="#fff"></path>
        <g id="Groupe_51" data-name="Groupe 51" transform="translate(158.923 38.854)" opacity="0.3">
          <g id="Groupe_50" data-name="Groupe 50">
            <g id="Groupe_49" data-name="Groupe 49" clip-path="url(#clip-path-11)">
              <path id="Tracé_693" data-name="Tracé 693" d="M92.389,35.549c-.316,8.337-2.679,15.015-5.279,14.915s-4.451-6.937-4.137-15.272,2.679-15.011,5.279-14.915,4.453,6.937,4.137,15.272" transform="translate(-82.939 -20.278)"></path>
            </g>
          </g>
        </g>
        <path id="Tracé_694" data-name="Tracé 694" d="M87.414,50.71c-.038.054-.469-.169-1.121-.732a7.162,7.162,0,0,1-2.129-3.014,36.509,36.509,0,0,1-1.537-11.805c.19-4.666,1.062-8.868,2.468-11.662,1.443-2.849,3.493-3.6,3.487-3.476A11.167,11.167,0,0,0,85.732,23.8a34.087,34.087,0,0,0-2.106,11.386,43.139,43.139,0,0,0,1.213,11.576A7.9,7.9,0,0,0,86.568,49.7c.55.629.891.95.847,1.008" transform="translate(75.682 18.331)" fill="#263238"></path>
        <path id="Tracé_695" data-name="Tracé 695" d="M10.77,151.2a12.017,12.017,0,0,1-1.019-2.3,28.672,28.672,0,0,1-.987-2.78c-.339-1.1-.776-2.34-1.1-3.754a70.709,70.709,0,0,1-1.84-10.018,73.351,73.351,0,0,1,1.506-24.822A70.591,70.591,0,0,1,10.372,97.8c.489-1.364,1.073-2.543,1.543-3.593a28.651,28.651,0,0,1,1.314-2.64,11.987,11.987,0,0,1,1.291-2.16c.172.088-1.531,3.238-3.487,8.642a79.433,79.433,0,0,0-2.8,9.675,86.317,86.317,0,0,0-1.713,12.208,86.143,86.143,0,0,0,.224,12.319,79.766,79.766,0,0,0,1.611,9.943c1.29,5.6,2.6,8.933,2.416,9" transform="translate(4.952 81.912)" fill="#fff"></path>
      </g>
    </g>
  </g>
</svg>
