<?xml version="1.0" encoding="utf-8"?>
<!-- Generator: Adobe Illustrator 27.2.0, SVG Export Plug-In . SVG Version: 6.00 Build 0)  -->
<svg version="1.1" id="Calque_1" xmlns="http://www.w3.org/2000/svg" xmlns:xlink="http://www.w3.org/1999/xlink" x="0px" y="0px"
	 viewBox="0 0 40.4 27.9" style="enable-background:new 0 0 40.4 27.9;" xml:space="preserve">
<style type="text/css">
	.st0{fill:#163452;}
</style>
<path id="Tracé_698" class="st0" d="M12.1,4.5H2.3C1,4.5,0,3.5,0,2.3S1,0,2.3,0h35.9c1.3,0,2.3,1,2.3,2.3s-1,2.3-2.3,2.3"/>
<path id="Tracé_2119" class="st0" d="M12.1,16.2H2.3C1,16.2,0,15.2,0,14s1-2.3,2.3-2.3h35.9c1.3,0,2.3,1,2.3,2.3s-1,2.3-2.3,2.3"/>
<path id="Tracé_2120" class="st0" d="M12.1,27.9H2.3c-1.3,0-2.3-1-2.3-2.3c0-1.3,1-2.3,2.3-2.3h35.9c1.3,0,2.3,1,2.3,2.3
	c0,1.3-1,2.3-2.3,2.3"/>
</svg>
