<svg xmlns="http://www.w3.org/2000/svg" xmlns:xlink="http://www.w3.org/1999/xlink" width="288.793" height="96.619" viewBox="0 0 288.793 96.619">
  <defs>
    <clipPath id="clip-path">
      <rect id="Rectangle_31" data-name="Rectangle 31" width="288.793" height="96.619" fill="none"/>
    </clipPath>
  </defs>
  <g id="Groupe_23" data-name="Groupe 23" transform="translate(0 0)">
    <g id="Groupe_23-2" data-name="Groupe 23" transform="translate(0 0)" clip-path="url(#clip-path)">
      <path id="Tracé_627" data-name="Tracé 627" d="M112.4,75.855h-8.239L97.043,61.321H91.925V75.855H84.812V39.418H99.09a11.764,11.764,0,0,1,8.7,3.275,10.685,10.685,0,0,1,3.122,7.881,9.743,9.743,0,0,1-6.653,9.57Zm-8.6-25.306a4.5,4.5,0,0,0-1.433-3.462,5.29,5.29,0,0,0-3.736-1.324h-6.7v9.571h6.7a5.287,5.287,0,0,0,3.736-1.324,4.491,4.491,0,0,0,1.433-3.461" transform="translate(-19.657 -9.136)" fill="#163452"/>
      <path id="Tracé_628" data-name="Tracé 628" d="M152.379,75.855h-24V39.418h24v6.346H135.491V54.31h14.381v6.346H135.491v8.854h16.888Z" transform="translate(-29.754 -9.136)" fill="#163452"/>
      <path id="Tracé_629" data-name="Tracé 629" d="M194.256,60.781q0,7.491-3.48,11.132a13.629,13.629,0,0,1-10.287,4.155,13.351,13.351,0,0,1-9.826-3.992,11.681,11.681,0,0,1-3.173-6.295,54.352,54.352,0,0,1-.409-8.239,54.317,54.317,0,0,1,.41-8.239,11.666,11.666,0,0,1,3.178-6.295,13.394,13.394,0,0,1,9.846-3.992,13.548,13.548,0,0,1,9.69,3.531,14.129,14.129,0,0,1,4.051,8.138h-7.183q-1.284-5.323-6.568-5.323a5.84,5.84,0,0,0-4.566,1.945,8.638,8.638,0,0,0-1.642,4.913q-.1.921-.1,5.322t.1,5.322a8.752,8.752,0,0,0,1.637,4.964,5.8,5.8,0,0,0,4.555,1.894,6.471,6.471,0,0,0,5.066-2.047,6.931,6.931,0,0,0,1.638-4.862V61.433h-6.7V55.445h13.767Z" transform="translate(-38.724 -9.043)" fill="#163452"/>
      <path id="Tracé_630" data-name="Tracé 630" d="M233.106,57.546H217.264a5.668,5.668,0,0,0,1.482,4.082,5.336,5.336,0,0,0,4.057,1.555,7.819,7.819,0,0,0,5.735-2.381l3.838,3.741a13.762,13.762,0,0,1-4.082,2.965,13.543,13.543,0,0,1-5.54,1.02q-11.711,0-11.712-12.975,0-6.074,3.062-9.573a10.1,10.1,0,0,1,7.97-3.353,10.289,10.289,0,0,1,8.164,3.449,12.736,12.736,0,0,1,2.867,8.651Zm-6.22-4.324A7.038,7.038,0,0,0,226.3,50.5a4.718,4.718,0,0,0-8.456,0,7,7,0,0,0-.582,2.722Z" transform="translate(-48.913 -9.88)" fill="#161615"/>
      <path id="Tracé_631" data-name="Tracé 631" d="M275.935,75.855H267.7l-7.114-14.534h-5.118V75.855h-7.113V39.418h14.278a11.764,11.764,0,0,1,8.7,3.275,10.684,10.684,0,0,1,3.121,7.881,9.742,9.742,0,0,1-6.652,9.57Zm-8.6-25.306a4.5,4.5,0,0,0-1.433-3.462,5.29,5.29,0,0,0-3.736-1.324h-6.7v9.571h6.7A5.287,5.287,0,0,0,265.9,54.01a4.491,4.491,0,0,0,1.433-3.461" transform="translate(-57.56 -9.136)" fill="#163452"/>
      <path id="Tracé_632" data-name="Tracé 632" d="M319.807,75.855h-6.346L299.03,53.491V75.855h-7.113V39.418h6.346l14.432,22.313V39.418h7.113Z" transform="translate(-67.657 -9.136)" fill="#163452"/>
      <path id="Tracé_633" data-name="Tracé 633" d="M366.222,75.855H358.8l-2.15-6.448H343.7l-2.2,6.448h-7.421l13.255-36.437h5.578ZM354.758,63.419l-4.452-13.254L345.7,63.419Z" transform="translate(-77.43 -9.136)" fill="#163452"/>
      <path id="Tracé_634" data-name="Tracé 634" d="M228.631,85.636H217.648a2.008,2.008,0,1,1,0-4.016h10.983a2.008,2.008,0,1,1,0,4.016" transform="translate(-49.978 -18.917)" fill="#d9000d"/>
      <path id="Tracé_635" data-name="Tracé 635" d="M47.143,55.039a2.559,2.559,0,0,1-2.19-4.371,33.783,33.783,0,0,0,6.621-8.189A2.559,2.559,0,1,1,56.08,44.9a38.619,38.619,0,0,1-7.586,9.457,2.55,2.55,0,0,1-1.352.678" transform="translate(-10.236 -9.533)" fill="#d9000d"/>
      <path id="Tracé_636" data-name="Tracé 636" d="M45.015,115.036a2.559,2.559,0,0,1-1.448-4.669c8.108-5.556,11.416-10.567,11.416-17.3a16.134,16.134,0,0,0-3.024-9.578,2.559,2.559,0,0,1,4.188-2.942A21.1,21.1,0,0,1,60.1,93.072c0,10.787-7.29,17.165-13.641,21.516a2.545,2.545,0,0,1-1.444.449" transform="translate(-9.84 -18.417)" fill="#163452"/>
      <path id="Tracé_637" data-name="Tracé 637" d="M41.02,69.566a2.547,2.547,0,0,1-1.612-.573,95.043,95.043,0,0,0-11.036-7.281c-8.078-4.821-16.43-9.8-19.933-18.053a2.559,2.559,0,0,1,4.71-2C16,48.369,23.284,52.715,30.995,57.317a98.675,98.675,0,0,1,11.64,7.7,2.559,2.559,0,0,1-1.615,4.545" transform="translate(-1.909 -9.294)" fill="#163452"/>
      <path id="Tracé_638" data-name="Tracé 638" d="M50.731,34.31h-.474a1.6,1.6,0,0,1,0-3.2h.474a1.6,1.6,0,1,1,0,3.2" transform="translate(-11.277 -7.211)" fill="#163452"/>
      <path id="Tracé_639" data-name="Tracé 639" d="M39.88,34.31H34.019a1.6,1.6,0,1,1,0-3.2H39.88a1.6,1.6,0,1,1,0,3.2" transform="translate(-7.514 -7.211)" fill="#163452"/>
      <path id="Tracé_640" data-name="Tracé 640" d="M25.412,34.31H18.464a1.6,1.6,0,0,1,0-3.2h6.948a1.6,1.6,0,1,1,0,3.2" transform="translate(-3.909 -7.211)" fill="#163452"/>
      <path id="Tracé_641" data-name="Tracé 641" d="M33.958,23.548H25.21a1.6,1.6,0,1,1,0-3.2h8.747a1.6,1.6,0,0,1,0,3.2" transform="translate(-5.472 -4.716)" fill="#d9000d"/>
      <path id="Tracé_642" data-name="Tracé 642" d="M43.977,23.548h-.5a1.6,1.6,0,1,1,0-3.2h.5a1.6,1.6,0,1,1,0,3.2" transform="translate(-9.706 -4.716)" fill="#163452"/>
      <path id="Tracé_643" data-name="Tracé 643" d="M33.958,45.074H25.21a1.6,1.6,0,1,1,0-3.2h8.747a1.6,1.6,0,1,1,0,3.2" transform="translate(-5.472 -9.706)" fill="#163452"/>
      <path id="Tracé_644" data-name="Tracé 644" d="M43.977,45.074h-.5a1.6,1.6,0,1,1,0-3.2h.5a1.6,1.6,0,1,1,0,3.2" transform="translate(-9.706 -9.706)" fill="#163452"/>
      <path id="Tracé_645" data-name="Tracé 645" d="M39.662,99H43.4a1.6,1.6,0,1,0,0-3.2H39.662a1.6,1.6,0,1,0,0,3.2" transform="translate(-8.822 -22.204)" fill="#d9000d"/>
      <path id="Tracé_646" data-name="Tracé 646" d="M32.732,109.763h3.875a1.6,1.6,0,0,0,0-3.2H32.732a1.6,1.6,0,1,0,0,3.2" transform="translate(-7.216 -24.698)" fill="#163452"/>
      <path id="Tracé_647" data-name="Tracé 647" d="M25.85,109.771a1.6,1.6,0,0,0,1.129-2.73,1.65,1.65,0,0,0-2.262,0,1.6,1.6,0,0,0,0,2.262,1.629,1.629,0,0,0,1.134.469" transform="translate(-5.62 -24.705)" fill="#163452"/>
      <path id="Tracé_648" data-name="Tracé 648" d="M38.209,88.236h.646a1.6,1.6,0,1,0,0-3.2h-.646a1.6,1.6,0,1,0,0,3.2" transform="translate(-8.485 -19.709)" fill="#163452"/>
      <path id="Tracé_649" data-name="Tracé 649" d="M48.423,3.578C41.044-2.334,34.214.382,30.8,2.528a16.9,16.9,0,0,0-3.8,3.269,16.933,16.933,0,0,0-3.8-3.269C19.794.383,12.965-2.334,5.587,3.578-3.295,10.7.322,22.367,3.476,27.543a2.426,2.426,0,1,0,4.144-2.524c-.069-.113-6.808-11.4,1-17.655C12.46,4.29,16.5,4.043,20.627,6.637a12.039,12.039,0,0,1,3.886,3.953,4.084,4.084,0,0,1,.253.466c.015.038.04.07.058.107a2.406,2.406,0,0,0,.166.307c.043.065.1.12.144.179a2.417,2.417,0,0,0,.156.187,2.431,2.431,0,0,0,.2.167c.055.045.107.094.167.134a2.514,2.514,0,0,0,.307.166c.037.018.068.042.108.058l.006,0a2.458,2.458,0,0,0,.456.139c.071.014.141.014.213.022a2.414,2.414,0,0,0,.26.025,2.319,2.319,0,0,0,.263-.025c.07-.008.14-.008.21-.022a2.409,2.409,0,0,0,.453-.138l.009,0c.049-.021.091-.051.138-.075a2.316,2.316,0,0,0,.275-.149c.066-.044.122-.1.183-.146s.127-.1.184-.154a2.237,2.237,0,0,0,.165-.2,2.067,2.067,0,0,0,.135-.169,2.382,2.382,0,0,0,.167-.307c.018-.037.042-.068.058-.107a3.991,3.991,0,0,1,.255-.471,12.052,12.052,0,0,1,3.883-3.949c4.128-2.593,8.168-2.348,12.007.728,7.765,6.223,1.279,17.2,1,17.659a2.426,2.426,0,0,0,4.146,2.52C53.687,22.367,57.3,10.7,48.423,3.578" transform="translate(0 0)" fill="#163452"/>
    </g>
  </g>
</svg>
