<svg xmlns="http://www.w3.org/2000/svg" width="76.828" height="31.358" viewBox="0 0 76.828 31.358">
  <g id="Groupe_3" data-name="Groupe 3" transform="translate(0 0)">
    <g id="Groupe_555" data-name="Groupe 555" transform="translate(0 0)">
      <path id="Tracé_24" data-name="Tracé 24" d="M35.045,8.746h-1.3a4.373,4.373,0,0,1,0-8.746h1.3a4.373,4.373,0,0,1,0,8.746" transform="translate(37.411 0)" fill="#163452"/>
      <path id="Tracé_25" data-name="Tracé 25" d="M34.772,8.746H18.746a4.373,4.373,0,0,1,0-8.746H34.772a4.373,4.373,0,0,1,0,8.746" transform="translate(18.305 0)" fill="#163452"/>
      <path id="Tracé_26" data-name="Tracé 26" d="M23.369,8.746h-19A4.373,4.373,0,0,1,4.372,0h19a4.373,4.373,0,0,1,0,8.746" transform="translate(0 0)" fill="#163452"/>
      <path id="Tracé_27" data-name="Tracé 27" d="M34.524,18.692H10.6a4.373,4.373,0,0,1,0-8.746H34.524a4.373,4.373,0,0,1,0,8.746" transform="translate(7.938 12.666)" fill="#163452"/>
      <path id="Tracé_28" data-name="Tracé 28" d="M28.849,18.692H27.487a4.373,4.373,0,0,1,0-8.746h1.362a4.373,4.373,0,0,1,0,8.746" transform="translate(29.437 12.666)" fill="#163452"/>
    </g>
  </g>
</svg>
